<?xml version="1.0" encoding="UTF-8"?>
<svg id="Layer_1" xmlns="http://www.w3.org/2000/svg" version="1.1" viewBox="0 0 626.91 477.66">
  <!-- Generator: Adobe Illustrator 29.1.0, SVG Export Plug-In . SVG Version: 2.1.0 Build 142)  -->
  <defs>
    <style>
      .st0 {
        fill: #fff;
        fill-rule: evenodd;
      }

      .st1 {
        fill: #30363a;
      }
    </style>
  </defs>
  <path class="st1" d="M419.99,276.14c-40.58,47.39-73.45,103.95-94.04,162.48-4.49,12.72-19.39,16.61-24.45,2.26-22.49-64.01-57.38-122.68-104.66-176-31.9-36.01-39.53-91.54-25.45-135.12C209.38,12.17,367.11-8.8,437.36,92.63c30.06,43.44,33.71,104.4,6.66,151.99-3.88,6.85-11.89,17.36-24.03,31.52Z"/>
  <polygon class="st0" points="250.29 105.28 375.62 105.28 395.95 125.14 395.95 163.99 356.02 124.32 270.4 124.32 257.17 138.53 257.17 177.27 230.95 150.19 230.95 125.61 250.29 105.28"/>
  <polygon class="st0" points="375.05 223.21 251.29 223.21 230.95 203.36 230.95 160.99 270.88 204.17 354.95 204.17 369.74 189.97 369.74 150.05 395.95 175.19 395.95 202.88 375.05 223.21"/>
</svg>