<svg xmlns="http://www.w3.org/2000/svg" version="1.1" xmlns:xlink="http://www.w3.org/1999/xlink" xmlns:svgjs="http://svgjs.dev/svgjs" viewBox="0 0 800 800" opacity="0.72"><g fill="none" stroke-width="2.25" stroke="hsl(0, 0%, 0%)" stroke-linecap="round" stroke-dasharray="48 0" transform="matrix(1.1,0,0,1.1,-39.99999771118166,-40.00000000000006)"><line x1="78" y1="400" x2="722" y2="400" transform="rotate(0, 400, 400)" opacity="0.32"></line><line x1="224" y1="400" x2="576" y2="400" transform="rotate(4, 400, 400)" opacity="0.47"></line><line x1="122" y1="400" x2="678" y2="400" transform="rotate(8, 400, 400)" opacity="0.60"></line><line x1="152" y1="400" x2="648" y2="400" transform="rotate(12, 400, 400)" opacity="0.19"></line><line x1="201.5" y1="400" x2="598.5" y2="400" transform="rotate(16, 400, 400)" opacity="0.83"></line><line x1="178" y1="400" x2="622" y2="400" transform="rotate(20, 400, 400)" opacity="0.93"></line><line x1="89" y1="400" x2="711" y2="400" transform="rotate(24, 400, 400)" opacity="0.94"></line><line x1="161" y1="400" x2="639" y2="400" transform="rotate(28, 400, 400)" opacity="0.59"></line><line x1="94" y1="400" x2="706" y2="400" transform="rotate(32, 400, 400)" opacity="0.47"></line><line x1="142" y1="400" x2="658" y2="400" transform="rotate(36, 400, 400)" opacity="0.34"></line><line x1="189" y1="400" x2="611" y2="400" transform="rotate(40, 400, 400)" opacity="0.78"></line><line x1="235.5" y1="400" x2="564.5" y2="400" transform="rotate(44, 400, 400)" opacity="0.82"></line><line x1="50" y1="400" x2="750" y2="400" transform="rotate(48, 400, 400)" opacity="0.93"></line><line x1="184.5" y1="400" x2="615.5" y2="400" transform="rotate(52, 400, 400)" opacity="0.55"></line><line x1="173.5" y1="400" x2="626.5" y2="400" transform="rotate(56, 400, 400)" opacity="0.88"></line><line x1="113.5" y1="400" x2="686.5" y2="400" transform="rotate(60, 400, 400)" opacity="0.51"></line><line x1="65.5" y1="400" x2="734.5" y2="400" transform="rotate(64, 400, 400)" opacity="0.52"></line><line x1="212" y1="400" x2="588" y2="400" transform="rotate(68, 400, 400)" opacity="0.73"></line><line x1="244.5" y1="400" x2="555.5" y2="400" transform="rotate(72, 400, 400)" opacity="0.30"></line><line x1="278.5" y1="400" x2="521.5" y2="400" transform="rotate(76, 400, 400)" opacity="0.13"></line><line x1="155.5" y1="400" x2="644.5" y2="400" transform="rotate(80, 400, 400)" opacity="0.52"></line><line x1="212" y1="400" x2="588" y2="400" transform="rotate(84, 400, 400)" opacity="0.51"></line><line x1="223.5" y1="400" x2="576.5" y2="400" transform="rotate(88, 400, 400)" opacity="0.78"></line><line x1="189.5" y1="400" x2="610.5" y2="400" transform="rotate(92, 400, 400)" opacity="0.38"></line><line x1="63.5" y1="400" x2="736.5" y2="400" transform="rotate(96, 400, 400)" opacity="0.99"></line><line x1="178.5" y1="400" x2="621.5" y2="400" transform="rotate(100, 400, 400)" opacity="0.58"></line><line x1="184" y1="400" x2="616" y2="400" transform="rotate(104, 400, 400)" opacity="0.10"></line><line x1="221" y1="400" x2="579" y2="400" transform="rotate(108, 400, 400)" opacity="0.40"></line><line x1="277.5" y1="400" x2="522.5" y2="400" transform="rotate(112, 400, 400)" opacity="0.91"></line><line x1="82.5" y1="400" x2="717.5" y2="400" transform="rotate(116, 400, 400)" opacity="0.08"></line><line x1="146" y1="400" x2="654" y2="400" transform="rotate(120, 400, 400)" opacity="0.14"></line><line x1="109.5" y1="400" x2="690.5" y2="400" transform="rotate(124, 400, 400)" opacity="0.19"></line><line x1="199" y1="400" x2="601" y2="400" transform="rotate(128, 400, 400)" opacity="0.11"></line><line x1="114" y1="400" x2="686" y2="400" transform="rotate(132, 400, 400)" opacity="0.22"></line><line x1="288" y1="400" x2="512" y2="400" transform="rotate(136, 400, 400)" opacity="0.79"></line><line x1="171" y1="400" x2="629" y2="400" transform="rotate(140, 400, 400)" opacity="0.40"></line><line x1="220.5" y1="400" x2="579.5" y2="400" transform="rotate(144, 400, 400)" opacity="0.24"></line><line x1="77.5" y1="400" x2="722.5" y2="400" transform="rotate(148, 400, 400)" opacity="0.82"></line><line x1="62.5" y1="400" x2="737.5" y2="400" transform="rotate(152, 400, 400)" opacity="0.60"></line><line x1="256.5" y1="400" x2="543.5" y2="400" transform="rotate(156, 400, 400)" opacity="0.13"></line><line x1="246.5" y1="400" x2="553.5" y2="400" transform="rotate(160, 400, 400)" opacity="0.73"></line><line x1="270.5" y1="400" x2="529.5" y2="400" transform="rotate(164, 400, 400)" opacity="0.81"></line><line x1="240.5" y1="400" x2="559.5" y2="400" transform="rotate(168, 400, 400)" opacity="0.15"></line><line x1="98" y1="400" x2="702" y2="400" transform="rotate(172, 400, 400)" opacity="0.60"></line><line x1="82.5" y1="400" x2="717.5" y2="400" transform="rotate(176, 400, 400)" opacity="0.67"></line><line x1="270" y1="400" x2="530" y2="400" transform="rotate(180, 400, 400)" opacity="0.21"></line><line x1="60.5" y1="400" x2="739.5" y2="400" transform="rotate(184, 400, 400)" opacity="0.57"></line><line x1="62.5" y1="400" x2="737.5" y2="400" transform="rotate(188, 400, 400)" opacity="0.63"></line><line x1="298" y1="400" x2="502" y2="400" transform="rotate(192, 400, 400)" opacity="0.57"></line><line x1="269" y1="400" x2="531" y2="400" transform="rotate(196, 400, 400)" opacity="0.60"></line><line x1="156.5" y1="400" x2="643.5" y2="400" transform="rotate(200, 400, 400)" opacity="0.91"></line><line x1="124.5" y1="400" x2="675.5" y2="400" transform="rotate(204, 400, 400)" opacity="0.15"></line><line x1="70.5" y1="400" x2="729.5" y2="400" transform="rotate(208, 400, 400)" opacity="0.55"></line><line x1="200.5" y1="400" x2="599.5" y2="400" transform="rotate(212, 400, 400)" opacity="0.65"></line><line x1="53" y1="400" x2="747" y2="400" transform="rotate(216, 400, 400)" opacity="0.13"></line><line x1="174" y1="400" x2="626" y2="400" transform="rotate(220, 400, 400)" opacity="0.95"></line><line x1="293.5" y1="400" x2="506.5" y2="400" transform="rotate(224, 400, 400)" opacity="0.38"></line><line x1="135" y1="400" x2="665" y2="400" transform="rotate(228, 400, 400)" opacity="0.70"></line><line x1="126.5" y1="400" x2="673.5" y2="400" transform="rotate(232, 400, 400)" opacity="0.32"></line><line x1="229.5" y1="400" x2="570.5" y2="400" transform="rotate(236, 400, 400)" opacity="0.54"></line><line x1="280" y1="400" x2="520" y2="400" transform="rotate(240, 400, 400)" opacity="0.89"></line><line x1="106.5" y1="400" x2="693.5" y2="400" transform="rotate(244, 400, 400)" opacity="0.30"></line><line x1="89" y1="400" x2="711" y2="400" transform="rotate(248, 400, 400)" opacity="0.84"></line><line x1="164.5" y1="400" x2="635.5" y2="400" transform="rotate(252, 400, 400)" opacity="0.25"></line><line x1="151.5" y1="400" x2="648.5" y2="400" transform="rotate(256, 400, 400)" opacity="0.82"></line><line x1="89" y1="400" x2="711" y2="400" transform="rotate(260, 400, 400)" opacity="0.17"></line><line x1="211" y1="400" x2="589" y2="400" transform="rotate(264, 400, 400)" opacity="0.28"></line><line x1="283" y1="400" x2="517" y2="400" transform="rotate(268, 400, 400)" opacity="0.99"></line><line x1="97" y1="400" x2="703" y2="400" transform="rotate(272, 400, 400)" opacity="0.73"></line><line x1="155" y1="400" x2="645" y2="400" transform="rotate(276, 400, 400)" opacity="0.83"></line><line x1="109.5" y1="400" x2="690.5" y2="400" transform="rotate(280, 400, 400)" opacity="0.53"></line><line x1="212.5" y1="400" x2="587.5" y2="400" transform="rotate(284, 400, 400)" opacity="0.54"></line><line x1="206" y1="400" x2="594" y2="400" transform="rotate(288, 400, 400)" opacity="0.83"></line><line x1="63" y1="400" x2="737" y2="400" transform="rotate(292, 400, 400)" opacity="0.23"></line><line x1="139" y1="400" x2="661" y2="400" transform="rotate(296, 400, 400)" opacity="0.86"></line><line x1="292" y1="400" x2="508" y2="400" transform="rotate(300, 400, 400)" opacity="0.70"></line><line x1="185" y1="400" x2="615" y2="400" transform="rotate(304, 400, 400)" opacity="0.50"></line><line x1="278.5" y1="400" x2="521.5" y2="400" transform="rotate(308, 400, 400)" opacity="0.53"></line><line x1="105.5" y1="400" x2="694.5" y2="400" transform="rotate(312, 400, 400)" opacity="0.61"></line><line x1="73" y1="400" x2="727" y2="400" transform="rotate(316, 400, 400)" opacity="0.67"></line><line x1="169.5" y1="400" x2="630.5" y2="400" transform="rotate(320, 400, 400)" opacity="0.41"></line><line x1="279.5" y1="400" x2="520.5" y2="400" transform="rotate(324, 400, 400)" opacity="0.21"></line><line x1="149.5" y1="400" x2="650.5" y2="400" transform="rotate(328, 400, 400)" opacity="0.75"></line><line x1="84.5" y1="400" x2="715.5" y2="400" transform="rotate(332, 400, 400)" opacity="0.47"></line><line x1="292.5" y1="400" x2="507.5" y2="400" transform="rotate(336, 400, 400)" opacity="0.19"></line><line x1="171" y1="400" x2="629" y2="400" transform="rotate(340, 400, 400)" opacity="0.58"></line><line x1="187" y1="400" x2="613" y2="400" transform="rotate(344, 400, 400)" opacity="0.16"></line><line x1="169" y1="400" x2="631" y2="400" transform="rotate(348, 400, 400)" opacity="0.96"></line><line x1="235.5" y1="400" x2="564.5" y2="400" transform="rotate(352, 400, 400)" opacity="0.76"></line><line x1="155.5" y1="400" x2="644.5" y2="400" transform="rotate(356, 400, 400)" opacity="0.57"></line><line x1="73.5" y1="400" x2="726.5" y2="400" transform="rotate(360, 400, 400)" opacity="0.33"></line><line x1="178.5" y1="400" x2="621.5" y2="400" transform="rotate(364, 400, 400)" opacity="0.52"></line></g></svg>